<svg xmlns="http://www.w3.org/2000/svg" viewBox="0 0 1728 960" font-family="-apple-system,BlinkMacSystemFont,'PingFang SC','Helvetica Neue','Microsoft YaHei',Arial,sans-serif">
<defs>
<linearGradient id="bg-grad" x1="0" y1="0" x2="0" y2="1"><stop offset="0" stop-color="#1e3a8a"/><stop offset="1" stop-color="#0e7490"/></linearGradient>
</defs>
<rect x="0" y="0" width="1728" height="960" fill="url(#bg-grad)"/>
<line x1="0" y1="0" x2="0" y2="960" stroke="#ffffff" stroke-width="1" opacity="0.05"/>
<line x1="108" y1="0" x2="108" y2="960" stroke="#ffffff" stroke-width="1" opacity="0.05"/>
<line x1="216" y1="0" x2="216" y2="960" stroke="#ffffff" stroke-width="1" opacity="0.05"/>
<line x1="324" y1="0" x2="324" y2="960" stroke="#ffffff" stroke-width="1" opacity="0.05"/>
<line x1="432" y1="0" x2="432" y2="960" stroke="#ffffff" stroke-width="1" opacity="0.05"/>
<line x1="540" y1="0" x2="540" y2="960" stroke="#ffffff" stroke-width="1" opacity="0.05"/>
<line x1="648" y1="0" x2="648" y2="960" stroke="#ffffff" stroke-width="1" opacity="0.05"/>
<line x1="756" y1="0" x2="756" y2="960" stroke="#ffffff" stroke-width="1" opacity="0.05"/>
<line x1="864" y1="0" x2="864" y2="960" stroke="#ffffff" stroke-width="1" opacity="0.05"/>
<line x1="972" y1="0" x2="972" y2="960" stroke="#ffffff" stroke-width="1" opacity="0.05"/>
<line x1="1080" y1="0" x2="1080" y2="960" stroke="#ffffff" stroke-width="1" opacity="0.05"/>
<line x1="1188" y1="0" x2="1188" y2="960" stroke="#ffffff" stroke-width="1" opacity="0.05"/>
<line x1="1296" y1="0" x2="1296" y2="960" stroke="#ffffff" stroke-width="1" opacity="0.05"/>
<line x1="1404" y1="0" x2="1404" y2="960" stroke="#ffffff" stroke-width="1" opacity="0.05"/>
<line x1="1512" y1="0" x2="1512" y2="960" stroke="#ffffff" stroke-width="1" opacity="0.05"/>
<line x1="1620" y1="0" x2="1620" y2="960" stroke="#ffffff" stroke-width="1" opacity="0.05"/>
<line x1="1728" y1="0" x2="1728" y2="960" stroke="#ffffff" stroke-width="1" opacity="0.05"/>
<line x1="0" y1="0" x2="1728" y2="0" stroke="#ffffff" stroke-width="1" opacity="0.05"/>
<line x1="0" y1="108" x2="1728" y2="108" stroke="#ffffff" stroke-width="1" opacity="0.05"/>
<line x1="0" y1="216" x2="1728" y2="216" stroke="#ffffff" stroke-width="1" opacity="0.05"/>
<line x1="0" y1="324" x2="1728" y2="324" stroke="#ffffff" stroke-width="1" opacity="0.05"/>
<line x1="0" y1="432" x2="1728" y2="432" stroke="#ffffff" stroke-width="1" opacity="0.05"/>
<line x1="0" y1="540" x2="1728" y2="540" stroke="#ffffff" stroke-width="1" opacity="0.05"/>
<line x1="0" y1="648" x2="1728" y2="648" stroke="#ffffff" stroke-width="1" opacity="0.05"/>
<line x1="0" y1="756" x2="1728" y2="756" stroke="#ffffff" stroke-width="1" opacity="0.05"/>
<line x1="0" y1="864" x2="1728" y2="864" stroke="#ffffff" stroke-width="1" opacity="0.05"/>
<circle cx="1452" cy="250" r="200" fill="#a78bfa"/>
<rect x="776" y="200" width="175" height="56" rx="28" fill="#ffffff" opacity="0.16"/>
<text x="864" y="236" font-family="-apple-system,BlinkMacSystemFont,'PingFang SC','Helvetica Neue','Microsoft YaHei',Arial,sans-serif" font-size="24" fill="#ffffff" text-anchor="middle" font-weight="600">Skill 指南</text>
<text x="864" y="508" font-family="-apple-system,BlinkMacSystemFont,'PingFang SC','Helvetica Neue','Microsoft YaHei',Arial,sans-serif" font-size="96" fill="#ffffff" text-anchor="middle" font-weight="800">给文章智能配插图</text>
<text x="864" y="570" font-family="-apple-system,BlinkMacSystemFont,'PingFang SC','Helvetica Neue','Microsoft YaHei',Arial,sans-serif" font-size="34" fill="#ffffff" text-anchor="middle" font-weight="400" letter-spacing="2" opacity="0.82">Claude Code skill 使用指南</text>
</svg>